<svg width="23" height="23" viewBox="0 0 23 23" fill="none" xmlns="http://www.w3.org/2000/svg">
<path fill-rule="evenodd" clip-rule="evenodd" d="M12.4583 11.4583V18.1667C12.4583 18.4208 12.3574 18.6646 12.1776 18.8443C11.9979 19.024 11.7542 19.125 11.5 19.125C11.2458 19.125 11.0021 19.024 10.8224 18.8443C10.6426 18.6646 10.5417 18.4208 10.5417 18.1667V11.4583H3.83333C3.57917 11.4583 3.33541 11.3574 3.15569 11.1776C2.97597 10.9979 2.875 10.7542 2.875 10.5C2.875 10.2458 2.97597 10.0021 3.15569 9.82236C3.33541 9.64263 3.57917 9.54167 3.83333 9.54167H10.5417V2.83333C10.5417 2.57917 10.6426 2.33541 10.8224 2.15569C11.0021 1.97597 11.2458 1.875 11.5 1.875C11.7542 1.875 11.9979 1.97597 12.1776 2.15569C12.3574 2.33541 12.4583 2.57917 12.4583 2.83333V9.54167H19.1667C19.4208 9.54167 19.6646 9.64263 19.8443 9.82236C20.024 10.0021 20.125 10.2458 20.125 10.5C20.125 10.7542 20.024 10.9979 19.8443 11.1776C19.6646 11.3574 19.4208 11.4583 19.1667 11.4583H12.4583Z" fill="#000"/>
</svg>
